<mxfile host="app.diagrams.net" agent="Mozilla/5.0 (Windows NT 10.0; Win64; x64) AppleWebKit/537.36 (KHTML, like Gecko) Chrome/129.0.0.0 Safari/537.36 Edg/129.0.0.0" version="24.8.2" pages="3">
  <diagram name="Contexto" id="CtViv22IhVTttE3M-iVM">
    <mxGraphModel dx="1286" dy="831" grid="1" gridSize="10" guides="1" tooltips="1" connect="1" arrows="1" fold="1" page="1" pageScale="1" pageWidth="1169" pageHeight="827" math="0" shadow="0">
      <root>
        <mxCell id="0" />
        <mxCell id="1" parent="0" />
        <object placeholders="1" c4Name="Usuário" c4Type="Person" c4Description="Usuário do sistema." label="&lt;font style=&quot;font-size: 16px&quot;&gt;&lt;b&gt;%c4Name%&lt;/b&gt;&lt;/font&gt;&lt;div&gt;[%c4Type%]&lt;/div&gt;&lt;br&gt;&lt;div&gt;&lt;font style=&quot;font-size: 11px&quot;&gt;&lt;font color=&quot;#cccccc&quot;&gt;%c4Description%&lt;/font&gt;&lt;/div&gt;" id="qOtZ_GEIQpYw8baWIwa5-1">
          <mxCell style="html=1;fontSize=11;dashed=0;whiteSpace=wrap;fillColor=#083F75;strokeColor=#06315C;fontColor=#ffffff;shape=mxgraph.c4.person2;align=center;metaEdit=1;points=[[0.5,0,0],[1,0.5,0],[1,0.75,0],[0.75,1,0],[0.5,1,0],[0.25,1,0],[0,0.75,0],[0,0.5,0]];resizable=0;" parent="1" vertex="1">
            <mxGeometry x="420" y="20" width="200" height="180" as="geometry" />
          </mxCell>
        </object>
        <object placeholders="1" c4Name="SGTA" c4Type="Software System" c4Description="Sistema de Gestão de Tickets de Atendimento da Papéis Miglel Escobar" label="&lt;font style=&quot;font-size: 16px&quot;&gt;&lt;b&gt;%c4Name%&lt;/b&gt;&lt;/font&gt;&lt;div&gt;[%c4Type%]&lt;/div&gt;&lt;br&gt;&lt;div&gt;&lt;font style=&quot;font-size: 11px&quot;&gt;&lt;font color=&quot;#cccccc&quot;&gt;%c4Description%&lt;/font&gt;&lt;/div&gt;" id="qOtZ_GEIQpYw8baWIwa5-2">
          <mxCell style="rounded=1;whiteSpace=wrap;html=1;labelBackgroundColor=none;fillColor=#1061B0;fontColor=#ffffff;align=center;arcSize=10;strokeColor=#0D5091;metaEdit=1;resizable=0;points=[[0.25,0,0],[0.5,0,0],[0.75,0,0],[1,0.25,0],[1,0.5,0],[1,0.75,0],[0.75,1,0],[0.5,1,0],[0.25,1,0],[0,0.75,0],[0,0.5,0],[0,0.25,0]];" parent="1" vertex="1">
            <mxGeometry x="400" y="354" width="240" height="120" as="geometry" />
          </mxCell>
        </object>
        <mxCell id="qOtZ_GEIQpYw8baWIwa5-8" style="edgeStyle=orthogonalEdgeStyle;rounded=0;orthogonalLoop=1;jettySize=auto;html=1;" parent="1" source="qOtZ_GEIQpYw8baWIwa5-3" edge="1">
          <mxGeometry relative="1" as="geometry">
            <mxPoint x="520" y="480" as="targetPoint" />
          </mxGeometry>
        </mxCell>
        <mxCell id="qOtZ_GEIQpYw8baWIwa5-9" value="Inicia atendimento, finaliza atendimento,&lt;div&gt;emite relatórios, visualiza relatórios,&lt;/div&gt;&lt;div&gt;transfere demanda a outro atendente,&lt;/div&gt;&lt;div&gt;autoatribui demanda de outro atendente&lt;/div&gt;" style="edgeLabel;html=1;align=center;verticalAlign=middle;resizable=0;points=[];" parent="qOtZ_GEIQpYw8baWIwa5-8" vertex="1" connectable="0">
          <mxGeometry x="0.1822" y="-2" relative="1" as="geometry">
            <mxPoint as="offset" />
          </mxGeometry>
        </mxCell>
        <object placeholders="1" c4Name="Atendente" c4Type="Person" c4Description="Atendente do Sistema." label="&lt;font style=&quot;font-size: 16px&quot;&gt;&lt;b&gt;%c4Name%&lt;/b&gt;&lt;/font&gt;&lt;div&gt;[%c4Type%]&lt;/div&gt;&lt;br&gt;&lt;div&gt;&lt;font style=&quot;font-size: 11px&quot;&gt;&lt;font color=&quot;#cccccc&quot;&gt;%c4Description%&lt;/font&gt;&lt;/div&gt;" id="qOtZ_GEIQpYw8baWIwa5-3">
          <mxCell style="html=1;fontSize=11;dashed=0;whiteSpace=wrap;fillColor=#083F75;strokeColor=#06315C;fontColor=#ffffff;shape=mxgraph.c4.person2;align=center;metaEdit=1;points=[[0.5,0,0],[1,0.5,0],[1,0.75,0],[0.75,1,0],[0.5,1,0],[0.25,1,0],[0,0.75,0],[0,0.5,0]];resizable=0;" parent="1" vertex="1">
            <mxGeometry x="420" y="590" width="200" height="180" as="geometry" />
          </mxCell>
        </object>
        <mxCell id="qOtZ_GEIQpYw8baWIwa5-6" style="edgeStyle=orthogonalEdgeStyle;rounded=0;orthogonalLoop=1;jettySize=auto;html=1;entryX=0.5;entryY=0;entryDx=0;entryDy=0;entryPerimeter=0;" parent="1" source="qOtZ_GEIQpYw8baWIwa5-1" target="qOtZ_GEIQpYw8baWIwa5-2" edge="1">
          <mxGeometry relative="1" as="geometry" />
        </mxCell>
        <mxCell id="qOtZ_GEIQpYw8baWIwa5-7" value="Abre demandas, visualiza as próprias demandas,&amp;nbsp;&lt;div&gt;avalia atendimento, reabre demandas&lt;/div&gt;" style="edgeLabel;html=1;align=center;verticalAlign=middle;resizable=0;points=[];" parent="qOtZ_GEIQpYw8baWIwa5-6" vertex="1" connectable="0">
          <mxGeometry x="0.0476" y="4" relative="1" as="geometry">
            <mxPoint as="offset" />
          </mxGeometry>
        </mxCell>
        <mxCell id="qOtZ_GEIQpYw8baWIwa5-10" style="edgeStyle=orthogonalEdgeStyle;rounded=0;orthogonalLoop=1;jettySize=auto;html=1;entryX=0;entryY=0.75;entryDx=0;entryDy=0;entryPerimeter=0;" parent="1" source="qOtZ_GEIQpYw8baWIwa5-2" target="qOtZ_GEIQpYw8baWIwa5-1" edge="1">
          <mxGeometry relative="1" as="geometry">
            <Array as="points">
              <mxPoint x="310" y="414" />
              <mxPoint x="310" y="155" />
            </Array>
          </mxGeometry>
        </mxCell>
        <mxCell id="qOtZ_GEIQpYw8baWIwa5-11" value="Notifica status das demandas,&lt;div&gt;notifica finalização de atendimento&lt;/div&gt;" style="edgeLabel;html=1;align=center;verticalAlign=middle;resizable=0;points=[];" parent="qOtZ_GEIQpYw8baWIwa5-10" vertex="1" connectable="0">
          <mxGeometry x="-0.1619" y="2" relative="1" as="geometry">
            <mxPoint as="offset" />
          </mxGeometry>
        </mxCell>
        <mxCell id="qOtZ_GEIQpYw8baWIwa5-12" style="edgeStyle=orthogonalEdgeStyle;rounded=0;orthogonalLoop=1;jettySize=auto;html=1;entryX=1;entryY=0.694;entryDx=0;entryDy=0;entryPerimeter=0;" parent="1" source="qOtZ_GEIQpYw8baWIwa5-2" target="qOtZ_GEIQpYw8baWIwa5-3" edge="1">
          <mxGeometry relative="1" as="geometry">
            <Array as="points">
              <mxPoint x="750" y="414" />
              <mxPoint x="750" y="715" />
            </Array>
          </mxGeometry>
        </mxCell>
        <mxCell id="qOtZ_GEIQpYw8baWIwa5-13" value="Notifica sobre demandas em aberto, notifica sobre avaliações recebidas,&amp;nbsp;&lt;div&gt;notifica sobre demandas transferidas para o atendente&lt;/div&gt;" style="edgeLabel;html=1;align=center;verticalAlign=middle;resizable=0;points=[];" parent="qOtZ_GEIQpYw8baWIwa5-12" vertex="1" connectable="0">
          <mxGeometry x="0.1006" y="2" relative="1" as="geometry">
            <mxPoint as="offset" />
          </mxGeometry>
        </mxCell>
      </root>
    </mxGraphModel>
  </diagram>
  <diagram id="MiwSy-E25OQ5ShVgKdAd" name="Contêineres">
    <mxGraphModel grid="1" page="1" gridSize="10" guides="1" tooltips="1" connect="1" arrows="1" fold="1" pageScale="1" pageWidth="1169" pageHeight="827" math="0" shadow="0">
      <root>
        <mxCell id="0" />
        <mxCell id="1" parent="0" />
        <object placeholders="1" c4Name="Usuário" c4Type="Person" c4Description="Usuário do sistema." label="&lt;font style=&quot;font-size: 16px&quot;&gt;&lt;b&gt;%c4Name%&lt;/b&gt;&lt;/font&gt;&lt;div&gt;[%c4Type%]&lt;/div&gt;&lt;br&gt;&lt;div&gt;&lt;font style=&quot;font-size: 11px&quot;&gt;&lt;font color=&quot;#cccccc&quot;&gt;%c4Description%&lt;/font&gt;&lt;/div&gt;" id="v7Pqz6WPy2uxa8tjNa7Y-1">
          <mxCell style="html=1;fontSize=11;dashed=0;whiteSpace=wrap;fillColor=#083F75;strokeColor=#06315C;fontColor=#ffffff;shape=mxgraph.c4.person2;align=center;metaEdit=1;points=[[0.5,0,0],[1,0.5,0],[1,0.75,0],[0.75,1,0],[0.5,1,0],[0.25,1,0],[0,0.75,0],[0,0.5,0]];resizable=0;" vertex="1" parent="1">
            <mxGeometry x="80" y="10" width="200" height="180" as="geometry" />
          </mxCell>
        </object>
        <mxCell id="eKw-fQH0y5PU5XxzzHJm-7" style="rounded=0;orthogonalLoop=1;jettySize=auto;html=1;dashed=1;exitX=-0.007;exitY=0.789;exitDx=0;exitDy=0;exitPerimeter=0;" edge="1" parent="1" source="v7Pqz6WPy2uxa8tjNa7Y-2" target="ahyvCL6-xqA1qHPNq5Qg-11">
          <mxGeometry relative="1" as="geometry" />
        </mxCell>
        <mxCell id="eKw-fQH0y5PU5XxzzHJm-11" value="Acessa o endereço&lt;div&gt;Web da Aplicação&lt;/div&gt;" style="edgeLabel;html=1;align=center;verticalAlign=middle;resizable=0;points=[];" vertex="1" connectable="0" parent="eKw-fQH0y5PU5XxzzHJm-7">
          <mxGeometry x="0.0193" relative="1" as="geometry">
            <mxPoint x="2" y="-8" as="offset" />
          </mxGeometry>
        </mxCell>
        <mxCell id="eKw-fQH0y5PU5XxzzHJm-8" style="rounded=0;orthogonalLoop=1;jettySize=auto;html=1;dashed=1;exitX=1.003;exitY=0.678;exitDx=0;exitDy=0;exitPerimeter=0;entryX=0.688;entryY=0;entryDx=0;entryDy=0;entryPerimeter=0;" edge="1" parent="1" source="v7Pqz6WPy2uxa8tjNa7Y-2" target="ahyvCL6-xqA1qHPNq5Qg-2">
          <mxGeometry relative="1" as="geometry" />
        </mxCell>
        <mxCell id="eKw-fQH0y5PU5XxzzHJm-13" value="Inicia atendimento, finaliza atendimento,&lt;div&gt;emite relatórios, visualiza relatórios,&lt;/div&gt;&lt;div&gt;transfere demanda a outro atendente,&lt;/div&gt;&lt;div&gt;autoatribui demanda de outro atendente&lt;/div&gt;" style="edgeLabel;html=1;align=center;verticalAlign=middle;resizable=0;points=[];" vertex="1" connectable="0" parent="eKw-fQH0y5PU5XxzzHJm-8">
          <mxGeometry x="-0.1527" y="-2" relative="1" as="geometry">
            <mxPoint x="41" y="18" as="offset" />
          </mxGeometry>
        </mxCell>
        <object placeholders="1" c4Name="Atendente" c4Type="Person" c4Description="Atendente do Sistema." label="&lt;font style=&quot;font-size: 16px&quot;&gt;&lt;b&gt;%c4Name%&lt;/b&gt;&lt;/font&gt;&lt;div&gt;[%c4Type%]&lt;/div&gt;&lt;br&gt;&lt;div&gt;&lt;font style=&quot;font-size: 11px&quot;&gt;&lt;font color=&quot;#cccccc&quot;&gt;%c4Description%&lt;/font&gt;&lt;/div&gt;" id="v7Pqz6WPy2uxa8tjNa7Y-2">
          <mxCell style="html=1;fontSize=11;dashed=0;whiteSpace=wrap;fillColor=#083F75;strokeColor=#06315C;fontColor=#ffffff;shape=mxgraph.c4.person2;align=center;metaEdit=1;points=[[0.5,0,0],[1,0.5,0],[1,0.75,0],[0.75,1,0],[0.5,1,0],[0.25,1,0],[0,0.75,0],[0,0.5,0]];resizable=0;" vertex="1" parent="1">
            <mxGeometry x="370" y="10" width="200" height="180" as="geometry" />
          </mxCell>
        </object>
        <mxCell id="ahyvCL6-xqA1qHPNq5Qg-5" style="rounded=0;orthogonalLoop=1;jettySize=auto;html=1;dashed=1;exitX=0;exitY=0.5;exitDx=0;exitDy=0;exitPerimeter=0;" edge="1" parent="1" source="ahyvCL6-xqA1qHPNq5Qg-1" target="ahyvCL6-xqA1qHPNq5Qg-4">
          <mxGeometry relative="1" as="geometry" />
        </mxCell>
        <mxCell id="ahyvCL6-xqA1qHPNq5Qg-8" value="Leitura e escrita de dados das demandas&lt;div&gt;utilizando Backend Laravel&lt;/div&gt;" style="edgeLabel;html=1;align=center;verticalAlign=middle;resizable=0;points=[];" vertex="1" connectable="0" parent="ahyvCL6-xqA1qHPNq5Qg-5">
          <mxGeometry x="0.15" y="2" relative="1" as="geometry">
            <mxPoint as="offset" />
          </mxGeometry>
        </mxCell>
        <object placeholders="1" c4Name="Backend Laravel" c4Type="Container" c4Technology="PHP e Laravel" c4Description="Backend da aplicação responsável por tratar as requisições envolvendo usuários, demandas e transferências de demandas. Comunica-se com o frontend via requisições HTTP utilizando JSON como formato de dados." label="&lt;font style=&quot;font-size: 16px&quot;&gt;&lt;b&gt;%c4Name%&lt;/b&gt;&lt;/font&gt;&lt;div&gt;[%c4Type%: %c4Technology%]&lt;/div&gt;&lt;br&gt;&lt;div&gt;&lt;font style=&quot;font-size: 11px&quot;&gt;&lt;font color=&quot;#E6E6E6&quot;&gt;%c4Description%&lt;/font&gt;&lt;/div&gt;" id="ahyvCL6-xqA1qHPNq5Qg-1">
          <mxCell style="rounded=1;whiteSpace=wrap;html=1;fontSize=11;labelBackgroundColor=none;fillColor=#23A2D9;fontColor=#ffffff;align=center;arcSize=10;strokeColor=#0E7DAD;metaEdit=1;resizable=0;points=[[0.25,0,0],[0.5,0,0],[0.75,0,0],[1,0.25,0],[1,0.5,0],[1,0.75,0],[0.75,1,0],[0.5,1,0],[0.25,1,0],[0,0.75,0],[0,0.5,0],[0,0.25,0]];" vertex="1" parent="1">
            <mxGeometry x="585" y="600" width="240" height="120" as="geometry" />
          </mxCell>
        </object>
        <object placeholders="1" c4Name="Frontend - SPA" c4Type="Container" c4Technology="Nextjs, React" c4Description="Responsável pela interação com o usuário. Obtém dados das bases de dados e envia dados para armazenamento através de requisições REST com o Backend" label="&lt;font style=&quot;font-size: 16px&quot;&gt;&lt;b&gt;%c4Name%&lt;/b&gt;&lt;/font&gt;&lt;div&gt;[%c4Type%:&amp;nbsp;%c4Technology%]&lt;/div&gt;&lt;br&gt;&lt;div&gt;&lt;font style=&quot;font-size: 11px&quot;&gt;&lt;font color=&quot;#E6E6E6&quot;&gt;%c4Description%&lt;/font&gt;&lt;/div&gt;" id="ahyvCL6-xqA1qHPNq5Qg-2">
          <mxCell style="shape=mxgraph.c4.webBrowserContainer2;whiteSpace=wrap;html=1;boundedLbl=1;rounded=0;labelBackgroundColor=none;strokeColor=#118ACD;fillColor=#23A2D9;strokeColor=#118ACD;strokeColor2=#0E7DAD;fontSize=12;fontColor=#ffffff;align=center;metaEdit=1;points=[[0.5,0,0],[1,0.25,0],[1,0.5,0],[1,0.75,0],[0.5,1,0],[0,0.75,0],[0,0.5,0],[0,0.25,0]];resizable=0;" vertex="1" parent="1">
            <mxGeometry x="585" y="320" width="240" height="160" as="geometry" />
          </mxCell>
        </object>
        <object placeholders="1" c4Name="Banco de Dados NOSQL" c4Type="Container" c4Technology="MongoDB" c4Description="Description of storage type container role/responsibility." label="&lt;font style=&quot;font-size: 16px&quot;&gt;&lt;b&gt;%c4Name%&lt;/b&gt;&lt;/font&gt;&lt;div&gt;[%c4Type%:&amp;nbsp;%c4Technology%]&lt;/div&gt;&lt;br&gt;&lt;div&gt;&lt;font style=&quot;font-size: 11px&quot;&gt;&lt;font color=&quot;#E6E6E6&quot;&gt;%c4Description%&lt;/font&gt;&lt;/div&gt;" id="ahyvCL6-xqA1qHPNq5Qg-3">
          <mxCell style="shape=cylinder3;size=15;whiteSpace=wrap;html=1;boundedLbl=1;rounded=0;labelBackgroundColor=none;fillColor=#23A2D9;fontSize=12;fontColor=#ffffff;align=center;strokeColor=#0E7DAD;metaEdit=1;points=[[0.5,0,0],[1,0.25,0],[1,0.5,0],[1,0.75,0],[0.5,1,0],[0,0.75,0],[0,0.5,0],[0,0.25,0]];resizable=0;" vertex="1" parent="1">
            <mxGeometry x="50" y="800" width="240" height="120" as="geometry" />
          </mxCell>
        </object>
        <object placeholders="1" c4Name="Banco de Dados SQL" c4Type="Container" c4Technology="MariaDB" c4Description="Description of storage type container role/responsibility." label="&lt;font style=&quot;font-size: 16px&quot;&gt;&lt;b&gt;%c4Name%&lt;/b&gt;&lt;/font&gt;&lt;div&gt;[%c4Type%:&amp;nbsp;%c4Technology%]&lt;/div&gt;&lt;br&gt;&lt;div&gt;&lt;font style=&quot;font-size: 11px&quot;&gt;&lt;font color=&quot;#E6E6E6&quot;&gt;%c4Description%&lt;/font&gt;&lt;/div&gt;" id="ahyvCL6-xqA1qHPNq5Qg-4">
          <mxCell style="shape=cylinder3;size=15;whiteSpace=wrap;html=1;boundedLbl=1;rounded=0;labelBackgroundColor=none;fillColor=#23A2D9;fontSize=12;fontColor=#ffffff;align=center;strokeColor=#0E7DAD;metaEdit=1;points=[[0.5,0,0],[1,0.25,0],[1,0.5,0],[1,0.75,0],[0.5,1,0],[0,0.75,0],[0,0.5,0],[0,0.25,0]];resizable=0;" vertex="1" parent="1">
            <mxGeometry x="50" y="600" width="240" height="120" as="geometry" />
          </mxCell>
        </object>
        <mxCell id="ahyvCL6-xqA1qHPNq5Qg-6" style="rounded=0;orthogonalLoop=1;jettySize=auto;html=1;exitX=0;exitY=0.5;exitDx=0;exitDy=0;exitPerimeter=0;dashed=1;entryX=1;entryY=0.5;entryDx=0;entryDy=0;entryPerimeter=0;" edge="1" parent="1" source="eKw-fQH0y5PU5XxzzHJm-1" target="ahyvCL6-xqA1qHPNq5Qg-3">
          <mxGeometry relative="1" as="geometry" />
        </mxCell>
        <mxCell id="ahyvCL6-xqA1qHPNq5Qg-7" value="Leitura e Escrita de Relatórios&lt;div&gt;utilizando Backend Node.js&lt;/div&gt;" style="edgeLabel;html=1;align=center;verticalAlign=middle;resizable=0;points=[];" vertex="1" connectable="0" parent="ahyvCL6-xqA1qHPNq5Qg-6">
          <mxGeometry x="0.2491" y="-1" relative="1" as="geometry">
            <mxPoint as="offset" />
          </mxGeometry>
        </mxCell>
        <mxCell id="ahyvCL6-xqA1qHPNq5Qg-9" style="rounded=0;orthogonalLoop=1;jettySize=auto;html=1;entryX=0.5;entryY=0;entryDx=0;entryDy=0;entryPerimeter=0;dashed=1;" edge="1" parent="1" source="ahyvCL6-xqA1qHPNq5Qg-2" target="ahyvCL6-xqA1qHPNq5Qg-1">
          <mxGeometry relative="1" as="geometry" />
        </mxCell>
        <mxCell id="ahyvCL6-xqA1qHPNq5Qg-10" value="Chamadas às APIs do sistema (REST, JSON, HTTPS)" style="edgeLabel;html=1;align=center;verticalAlign=middle;resizable=0;points=[];" vertex="1" connectable="0" parent="ahyvCL6-xqA1qHPNq5Qg-9">
          <mxGeometry x="-0.2667" relative="1" as="geometry">
            <mxPoint as="offset" />
          </mxGeometry>
        </mxCell>
        <mxCell id="eKw-fQH0y5PU5XxzzHJm-4" style="rounded=0;orthogonalLoop=1;jettySize=auto;html=1;entryX=0;entryY=0.5;entryDx=0;entryDy=0;entryPerimeter=0;" edge="1" parent="1" source="ahyvCL6-xqA1qHPNq5Qg-11" target="ahyvCL6-xqA1qHPNq5Qg-2">
          <mxGeometry relative="1" as="geometry">
            <mxPoint x="550" y="410" as="targetPoint" />
          </mxGeometry>
        </mxCell>
        <mxCell id="eKw-fQH0y5PU5XxzzHJm-5" value="Redireciona para a aplicação&amp;nbsp;&lt;div&gt;do endereço web&lt;/div&gt;" style="edgeLabel;html=1;align=center;verticalAlign=middle;resizable=0;points=[];" vertex="1" connectable="0" parent="eKw-fQH0y5PU5XxzzHJm-4">
          <mxGeometry x="-0.0695" y="2" relative="1" as="geometry">
            <mxPoint as="offset" />
          </mxGeometry>
        </mxCell>
        <object placeholders="1" c4Name="Proxy Reverso" c4Type="Container" c4Technology="Nginx" c4Description="Responsável por manipular a requisição de serviços a partir do endereço acessado pelo navegador e redirecionar à aplicação correta." label="&lt;font style=&quot;font-size: 16px&quot;&gt;&lt;b&gt;%c4Name%&lt;/b&gt;&lt;/font&gt;&lt;div&gt;[%c4Type%: %c4Technology%]&lt;/div&gt;&lt;br&gt;&lt;div&gt;&lt;font style=&quot;font-size: 11px&quot;&gt;&lt;font color=&quot;#E6E6E6&quot;&gt;%c4Description%&lt;/font&gt;&lt;/div&gt;" id="ahyvCL6-xqA1qHPNq5Qg-11">
          <mxCell style="rounded=1;whiteSpace=wrap;html=1;fontSize=11;labelBackgroundColor=none;fillColor=#23A2D9;fontColor=#ffffff;align=center;arcSize=10;strokeColor=#0E7DAD;metaEdit=1;resizable=0;points=[[0.25,0,0],[0.5,0,0],[0.75,0,0],[1,0.25,0],[1,0.5,0],[1,0.75,0],[0.75,1,0],[0.5,1,0],[0.25,1,0],[0,0.75,0],[0,0.5,0],[0,0.25,0]];" vertex="1" parent="1">
            <mxGeometry x="50" y="340" width="240" height="120" as="geometry" />
          </mxCell>
        </object>
        <object placeholders="1" c4Name="Backend Node.js" c4Type="Container" c4Technology="Node.js" c4Description="Backend da aplicação responsável por tratar as requisições de relatórios. As requisições são recebidas e devolvidas ao backend Laravel, sem contato com o frontend da aplicação." label="&lt;font style=&quot;font-size: 16px&quot;&gt;&lt;b&gt;%c4Name%&lt;/b&gt;&lt;/font&gt;&lt;div&gt;[%c4Type%: %c4Technology%]&lt;/div&gt;&lt;br&gt;&lt;div&gt;&lt;font style=&quot;font-size: 11px&quot;&gt;&lt;font color=&quot;#E6E6E6&quot;&gt;%c4Description%&lt;/font&gt;&lt;/div&gt;" id="eKw-fQH0y5PU5XxzzHJm-1">
          <mxCell style="rounded=1;whiteSpace=wrap;html=1;fontSize=11;labelBackgroundColor=none;fillColor=#23A2D9;fontColor=#ffffff;align=center;arcSize=10;strokeColor=#0E7DAD;metaEdit=1;resizable=0;points=[[0.25,0,0],[0.5,0,0],[0.75,0,0],[1,0.25,0],[1,0.5,0],[1,0.75,0],[0.75,1,0],[0.5,1,0],[0.25,1,0],[0,0.75,0],[0,0.5,0],[0,0.25,0]];" vertex="1" parent="1">
            <mxGeometry x="585" y="800" width="240" height="120" as="geometry" />
          </mxCell>
        </object>
        <mxCell id="eKw-fQH0y5PU5XxzzHJm-2" style="rounded=0;orthogonalLoop=1;jettySize=auto;html=1;entryX=0.5;entryY=0;entryDx=0;entryDy=0;entryPerimeter=0;dashed=1;" edge="1" parent="1" source="ahyvCL6-xqA1qHPNq5Qg-1" target="eKw-fQH0y5PU5XxzzHJm-1">
          <mxGeometry relative="1" as="geometry" />
        </mxCell>
        <mxCell id="eKw-fQH0y5PU5XxzzHJm-3" value="Encaminha as requisições de relatórios&amp;nbsp;&lt;div&gt;e recebe as respostas&lt;/div&gt;" style="edgeLabel;html=1;align=center;verticalAlign=middle;resizable=0;points=[];" vertex="1" connectable="0" parent="eKw-fQH0y5PU5XxzzHJm-2">
          <mxGeometry x="0.1573" relative="1" as="geometry">
            <mxPoint as="offset" />
          </mxGeometry>
        </mxCell>
        <mxCell id="eKw-fQH0y5PU5XxzzHJm-6" style="rounded=0;orthogonalLoop=1;jettySize=auto;html=1;entryX=0.417;entryY=0.042;entryDx=0;entryDy=0;entryPerimeter=0;dashed=1;" edge="1" parent="1" source="v7Pqz6WPy2uxa8tjNa7Y-1" target="ahyvCL6-xqA1qHPNq5Qg-11">
          <mxGeometry relative="1" as="geometry" />
        </mxCell>
        <mxCell id="eKw-fQH0y5PU5XxzzHJm-10" value="Acessa o endereço&lt;div&gt;Web da Aplicação&lt;/div&gt;" style="edgeLabel;html=1;align=center;verticalAlign=middle;resizable=0;points=[];" vertex="1" connectable="0" parent="eKw-fQH0y5PU5XxzzHJm-6">
          <mxGeometry x="-0.2308" y="-2" relative="1" as="geometry">
            <mxPoint x="2" y="10" as="offset" />
          </mxGeometry>
        </mxCell>
        <mxCell id="eKw-fQH0y5PU5XxzzHJm-9" style="rounded=0;orthogonalLoop=1;jettySize=auto;html=1;entryX=0.007;entryY=0.294;entryDx=0;entryDy=0;entryPerimeter=0;dashed=1;" edge="1" parent="1" source="v7Pqz6WPy2uxa8tjNa7Y-1" target="ahyvCL6-xqA1qHPNq5Qg-2">
          <mxGeometry relative="1" as="geometry" />
        </mxCell>
        <mxCell id="eKw-fQH0y5PU5XxzzHJm-12" value="Abre demandas, Visualiza&lt;div&gt;as próprias demandas, Avalia&lt;/div&gt;&lt;div&gt;atendimento, Reabre demanda&lt;/div&gt;" style="edgeLabel;html=1;align=center;verticalAlign=middle;resizable=0;points=[];" vertex="1" connectable="0" parent="eKw-fQH0y5PU5XxzzHJm-9">
          <mxGeometry x="-0.1627" y="-2" relative="1" as="geometry">
            <mxPoint x="52" y="48" as="offset" />
          </mxGeometry>
        </mxCell>
      </root>
    </mxGraphModel>
  </diagram>
  <diagram id="PMhI0qqHNW8pI4z6El4z" name="Componentes">
    <mxGraphModel dx="1286" dy="831" grid="1" gridSize="10" guides="1" tooltips="1" connect="1" arrows="1" fold="1" page="1" pageScale="1" pageWidth="1169" pageHeight="827" math="0" shadow="0">
      <root>
        <mxCell id="0" />
        <mxCell id="1" parent="0" />
        <mxCell id="_5Nk-PLWkJ2nq61Lgyyn-15" style="rounded=0;orthogonalLoop=1;jettySize=auto;html=1;dashed=1;exitX=0.992;exitY=0.298;exitDx=0;exitDy=0;exitPerimeter=0;" parent="1" source="PkGK7Ku9BQiOKgjleiU0-1" target="_5Nk-PLWkJ2nq61Lgyyn-9" edge="1">
          <mxGeometry relative="1" as="geometry" />
        </mxCell>
        <mxCell id="PvCxzTXBCN7CgjAEc5kN-4" value="Chamada de API" style="edgeLabel;html=1;align=center;verticalAlign=middle;resizable=0;points=[];" parent="_5Nk-PLWkJ2nq61Lgyyn-15" connectable="0" vertex="1">
          <mxGeometry x="0.326" y="1" relative="1" as="geometry">
            <mxPoint as="offset" />
          </mxGeometry>
        </mxCell>
        <mxCell id="_5Nk-PLWkJ2nq61Lgyyn-16" style="rounded=0;orthogonalLoop=1;jettySize=auto;html=1;dashed=1;" parent="1" source="PkGK7Ku9BQiOKgjleiU0-1" target="_5Nk-PLWkJ2nq61Lgyyn-4" edge="1">
          <mxGeometry relative="1" as="geometry" />
        </mxCell>
        <mxCell id="PvCxzTXBCN7CgjAEc5kN-2" value="Chamada de API" style="edgeLabel;html=1;align=center;verticalAlign=middle;resizable=0;points=[];" parent="_5Nk-PLWkJ2nq61Lgyyn-16" connectable="0" vertex="1">
          <mxGeometry x="-0.7616" y="-3" relative="1" as="geometry">
            <mxPoint as="offset" />
          </mxGeometry>
        </mxCell>
        <mxCell id="_5Nk-PLWkJ2nq61Lgyyn-18" style="rounded=0;orthogonalLoop=1;jettySize=auto;html=1;dashed=1;exitX=1;exitY=0.581;exitDx=0;exitDy=0;exitPerimeter=0;" parent="1" source="PkGK7Ku9BQiOKgjleiU0-1" target="_5Nk-PLWkJ2nq61Lgyyn-3" edge="1">
          <mxGeometry relative="1" as="geometry" />
        </mxCell>
        <mxCell id="PvCxzTXBCN7CgjAEc5kN-3" value="Chamada de API" style="edgeLabel;html=1;align=center;verticalAlign=middle;resizable=0;points=[];" parent="_5Nk-PLWkJ2nq61Lgyyn-18" connectable="0" vertex="1">
          <mxGeometry x="-0.5464" y="-4" relative="1" as="geometry">
            <mxPoint y="1" as="offset" />
          </mxGeometry>
        </mxCell>
        <object placeholders="1" c4Name="Frontend - SPA" c4Type="Container" c4Technology="Nextjs, React" c4Description="Responsável pela interação com o usuário. Obtém dados das bases de dados e envia dados para armazenamento através de requisições REST com o Backend" label="&lt;font style=&quot;font-size: 16px&quot;&gt;&lt;b&gt;%c4Name%&lt;/b&gt;&lt;/font&gt;&lt;div&gt;[%c4Type%:&amp;nbsp;%c4Technology%]&lt;/div&gt;&lt;br&gt;&lt;div&gt;&lt;font style=&quot;font-size: 11px&quot;&gt;&lt;font color=&quot;#E6E6E6&quot;&gt;%c4Description%&lt;/font&gt;&lt;/div&gt;" id="PkGK7Ku9BQiOKgjleiU0-1">
          <mxCell style="shape=mxgraph.c4.webBrowserContainer2;whiteSpace=wrap;html=1;boundedLbl=1;rounded=0;labelBackgroundColor=none;strokeColor=#118ACD;fillColor=#23A2D9;strokeColor=#118ACD;strokeColor2=#0E7DAD;fontSize=12;fontColor=#ffffff;align=center;metaEdit=1;points=[[0.5,0,0],[1,0.25,0],[1,0.5,0],[1,0.75,0],[0.5,1,0],[0,0.75,0],[0,0.5,0],[0,0.25,0]];resizable=0;" parent="1" vertex="1">
            <mxGeometry x="450" y="50" width="240" height="160" as="geometry" />
          </mxCell>
        </object>
        <object placeholders="1" c4Name="Backend Laravel" c4Type="ContainerScopeBoundary" c4Application="Container" label="&lt;font style=&quot;font-size: 16px&quot;&gt;&lt;b&gt;&lt;div style=&quot;text-align: left&quot;&gt;%c4Name%&lt;/div&gt;&lt;/b&gt;&lt;/font&gt;&lt;div style=&quot;text-align: left&quot;&gt;[%c4Application%]&lt;/div&gt;" id="PkGK7Ku9BQiOKgjleiU0-2">
          <mxCell style="rounded=1;fontSize=11;whiteSpace=wrap;html=1;dashed=1;arcSize=20;fillColor=none;strokeColor=#666666;fontColor=#333333;labelBackgroundColor=none;align=left;verticalAlign=bottom;labelBorderColor=none;spacingTop=0;spacing=10;dashPattern=8 4;metaEdit=1;rotatable=0;perimeter=rectanglePerimeter;noLabel=0;labelPadding=0;allowArrows=0;connectable=0;expand=0;recursiveResize=0;editable=1;pointerEvents=0;absoluteArcSize=1;points=[[0.25,0,0],[0.5,0,0],[0.75,0,0],[1,0.25,0],[1,0.5,0],[1,0.75,0],[0.75,1,0],[0.5,1,0],[0.25,1,0],[0,0.75,0],[0,0.5,0],[0,0.25,0]];" parent="1" vertex="1">
            <mxGeometry x="120" y="260" width="930" height="480" as="geometry" />
          </mxCell>
        </object>
        <object placeholders="1" c4Name="Backend Node.js" c4Type="ContainerScopeBoundary" c4Application="Container" label="&lt;font style=&quot;font-size: 16px&quot;&gt;&lt;b&gt;&lt;div style=&quot;text-align: left&quot;&gt;%c4Name%&lt;/div&gt;&lt;/b&gt;&lt;/font&gt;&lt;div style=&quot;text-align: left&quot;&gt;[%c4Application%]&lt;/div&gt;" id="br0N442-1Shh7FSGSLEy-1">
          <mxCell style="rounded=1;fontSize=11;whiteSpace=wrap;html=1;dashed=1;arcSize=20;fillColor=none;strokeColor=#666666;fontColor=#333333;labelBackgroundColor=none;align=left;verticalAlign=bottom;labelBorderColor=none;spacingTop=0;spacing=10;dashPattern=8 4;metaEdit=1;rotatable=0;perimeter=rectanglePerimeter;noLabel=0;labelPadding=0;allowArrows=0;connectable=0;expand=0;recursiveResize=0;editable=1;pointerEvents=0;absoluteArcSize=1;points=[[0.25,0,0],[0.5,0,0],[0.75,0,0],[1,0.25,0],[1,0.5,0],[1,0.75,0],[0.75,1,0],[0.5,1,0],[0.25,1,0],[0,0.75,0],[0,0.5,0],[0,0.25,0]];" parent="1" vertex="1">
            <mxGeometry x="1160" y="280" width="380" height="480" as="geometry" />
          </mxCell>
        </object>
        <object placeholders="1" c4Name="Banco de Dados NOSQL" c4Type="Container" c4Technology="MongoDB" c4Description="Description of storage type container role/responsibility." label="&lt;font style=&quot;font-size: 16px&quot;&gt;&lt;b&gt;%c4Name%&lt;/b&gt;&lt;/font&gt;&lt;div&gt;[%c4Type%:&amp;nbsp;%c4Technology%]&lt;/div&gt;&lt;br&gt;&lt;div&gt;&lt;font style=&quot;font-size: 11px&quot;&gt;&lt;font color=&quot;#E6E6E6&quot;&gt;%c4Description%&lt;/font&gt;&lt;/div&gt;" id="_hzTCAJk9NoHxhxBSFEY-1">
          <mxCell style="shape=cylinder3;size=15;whiteSpace=wrap;html=1;boundedLbl=1;rounded=0;labelBackgroundColor=none;fillColor=#23A2D9;fontSize=12;fontColor=#ffffff;align=center;strokeColor=#0E7DAD;metaEdit=1;points=[[0.5,0,0],[1,0.25,0],[1,0.5,0],[1,0.75,0],[0.5,1,0],[0,0.75,0],[0,0.5,0],[0,0.25,0]];resizable=0;" parent="1" vertex="1">
            <mxGeometry x="1230" y="827" width="240" height="120" as="geometry" />
          </mxCell>
        </object>
        <object placeholders="1" c4Name="Banco de Dados SQL" c4Type="Container" c4Technology="MariaDB" c4Description="Description of storage type container role/responsibility." label="&lt;font style=&quot;font-size: 16px&quot;&gt;&lt;b&gt;%c4Name%&lt;/b&gt;&lt;/font&gt;&lt;div&gt;[%c4Type%:&amp;nbsp;%c4Technology%]&lt;/div&gt;&lt;br&gt;&lt;div&gt;&lt;font style=&quot;font-size: 11px&quot;&gt;&lt;font color=&quot;#E6E6E6&quot;&gt;%c4Description%&lt;/font&gt;&lt;/div&gt;" id="_hzTCAJk9NoHxhxBSFEY-2">
          <mxCell style="shape=cylinder3;size=15;whiteSpace=wrap;html=1;boundedLbl=1;rounded=0;labelBackgroundColor=none;fillColor=#23A2D9;fontSize=12;fontColor=#ffffff;align=center;strokeColor=#0E7DAD;metaEdit=1;points=[[0.5,0,0],[1,0.25,0],[1,0.5,0],[1,0.75,0],[0.5,1,0],[0,0.75,0],[0,0.5,0],[0,0.25,0]];resizable=0;" parent="1" vertex="1">
            <mxGeometry x="360" y="827" width="240" height="120" as="geometry" />
          </mxCell>
        </object>
        <object placeholders="1" c4Name="LoginController" c4Type="Container" c4Technology="e.g. SpringBoot, ElasticSearch, etc." c4Description="Description of container role/responsibility." label="&lt;font style=&quot;font-size: 16px&quot;&gt;&lt;b&gt;%c4Name%&lt;/b&gt;&lt;/font&gt;&lt;div&gt;[%c4Type%: %c4Technology%]&lt;/div&gt;&lt;br&gt;&lt;div&gt;&lt;font style=&quot;font-size: 11px&quot;&gt;&lt;font color=&quot;#E6E6E6&quot;&gt;%c4Description%&lt;/font&gt;&lt;/div&gt;" id="_5Nk-PLWkJ2nq61Lgyyn-1">
          <mxCell style="rounded=1;whiteSpace=wrap;html=1;fontSize=11;labelBackgroundColor=none;fillColor=#23A2D9;fontColor=#ffffff;align=center;arcSize=10;strokeColor=#0E7DAD;metaEdit=1;resizable=0;points=[[0.25,0,0],[0.5,0,0],[0.75,0,0],[1,0.25,0],[1,0.5,0],[1,0.75,0],[0.75,1,0],[0.5,1,0],[0.25,1,0],[0,0.75,0],[0,0.5,0],[0,0.25,0]];" parent="1" vertex="1">
            <mxGeometry x="130" y="550" width="240" height="120" as="geometry" />
          </mxCell>
        </object>
        <mxCell id="_5Nk-PLWkJ2nq61Lgyyn-21" style="rounded=0;orthogonalLoop=1;jettySize=auto;html=1;dashed=1;exitX=0.433;exitY=1.014;exitDx=0;exitDy=0;exitPerimeter=0;" parent="1" source="_5Nk-PLWkJ2nq61Lgyyn-2" target="_5Nk-PLWkJ2nq61Lgyyn-1" edge="1">
          <mxGeometry relative="1" as="geometry" />
        </mxCell>
        <mxCell id="PvCxzTXBCN7CgjAEc5kN-6" value="UItiliza" style="edgeLabel;html=1;align=center;verticalAlign=middle;resizable=0;points=[];" parent="_5Nk-PLWkJ2nq61Lgyyn-21" connectable="0" vertex="1">
          <mxGeometry x="0.0201" y="1" relative="1" as="geometry">
            <mxPoint as="offset" />
          </mxGeometry>
        </mxCell>
        <mxCell id="_5Nk-PLWkJ2nq61Lgyyn-22" style="rounded=0;orthogonalLoop=1;jettySize=auto;html=1;dashed=1;" parent="1" source="_5Nk-PLWkJ2nq61Lgyyn-2" target="_hzTCAJk9NoHxhxBSFEY-2" edge="1">
          <mxGeometry relative="1" as="geometry" />
        </mxCell>
        <mxCell id="PvCxzTXBCN7CgjAEc5kN-11" value="Leitura e Escrita" style="edgeLabel;html=1;align=center;verticalAlign=middle;resizable=0;points=[];" parent="_5Nk-PLWkJ2nq61Lgyyn-22" connectable="0" vertex="1">
          <mxGeometry x="0.0296" relative="1" as="geometry">
            <mxPoint as="offset" />
          </mxGeometry>
        </mxCell>
        <object placeholders="1" c4Name="UserController" c4Type="Container" c4Technology="e.g. SpringBoot, ElasticSearch, etc." c4Description="Responsável pelas operações com usuário, incluindo informar o papel funcional." label="&lt;font style=&quot;font-size: 16px&quot;&gt;&lt;b&gt;%c4Name%&lt;/b&gt;&lt;/font&gt;&lt;div&gt;[%c4Type%: %c4Technology%]&lt;/div&gt;&lt;br&gt;&lt;div&gt;&lt;font style=&quot;font-size: 11px&quot;&gt;&lt;font color=&quot;#E6E6E6&quot;&gt;%c4Description%&lt;/font&gt;&lt;/div&gt;" id="_5Nk-PLWkJ2nq61Lgyyn-2">
          <mxCell style="rounded=1;whiteSpace=wrap;html=1;fontSize=11;labelBackgroundColor=none;fillColor=#23A2D9;fontColor=#ffffff;align=center;arcSize=10;strokeColor=#0E7DAD;metaEdit=1;resizable=0;points=[[0.25,0,0],[0.5,0,0],[0.75,0,0],[1,0.25,0],[1,0.5,0],[1,0.75,0],[0.75,1,0],[0.5,1,0],[0.25,1,0],[0,0.75,0],[0,0.5,0],[0,0.25,0]];" parent="1" vertex="1">
            <mxGeometry x="230" y="280" width="240" height="120" as="geometry" />
          </mxCell>
        </object>
        <object placeholders="1" c4Name="TransfersController" c4Type="Container" c4Technology="e.g. SpringBoot, ElasticSearch, etc." c4Description="Responsável pelo controle das transferências de demandas entre usuários" label="&lt;font style=&quot;font-size: 16px&quot;&gt;&lt;b&gt;%c4Name%&lt;/b&gt;&lt;/font&gt;&lt;div&gt;[%c4Type%: %c4Technology%]&lt;/div&gt;&lt;br&gt;&lt;div&gt;&lt;font style=&quot;font-size: 11px&quot;&gt;&lt;font color=&quot;#E6E6E6&quot;&gt;%c4Description%&lt;/font&gt;&lt;/div&gt;" id="_5Nk-PLWkJ2nq61Lgyyn-3">
          <mxCell style="rounded=1;whiteSpace=wrap;html=1;fontSize=11;labelBackgroundColor=none;fillColor=#23A2D9;fontColor=#ffffff;align=center;arcSize=10;strokeColor=#0E7DAD;metaEdit=1;resizable=0;points=[[0.25,0,0],[0.5,0,0],[0.75,0,0],[1,0.25,0],[1,0.5,0],[1,0.75,0],[0.75,1,0],[0.5,1,0],[0.25,1,0],[0,0.75,0],[0,0.5,0],[0,0.25,0]];" parent="1" vertex="1">
            <mxGeometry x="740" y="590" width="240" height="120" as="geometry" />
          </mxCell>
        </object>
        <object placeholders="1" c4Name="RequestsController" c4Type="Container" c4Technology="e.g. SpringBoot, ElasticSearch, etc." c4Description="Responsável pelas operações envolvendo as demandas do sistema" label="&lt;font style=&quot;font-size: 16px&quot;&gt;&lt;b&gt;%c4Name%&lt;/b&gt;&lt;/font&gt;&lt;div&gt;[%c4Type%: %c4Technology%]&lt;/div&gt;&lt;br&gt;&lt;div&gt;&lt;font style=&quot;font-size: 11px&quot;&gt;&lt;font color=&quot;#E6E6E6&quot;&gt;%c4Description%&lt;/font&gt;&lt;/div&gt;" id="_5Nk-PLWkJ2nq61Lgyyn-4">
          <mxCell style="rounded=1;whiteSpace=wrap;html=1;fontSize=11;labelBackgroundColor=none;fillColor=#23A2D9;fontColor=#ffffff;align=center;arcSize=10;strokeColor=#0E7DAD;metaEdit=1;resizable=0;points=[[0.25,0,0],[0.5,0,0],[0.75,0,0],[1,0.25,0],[1,0.5,0],[1,0.75,0],[0.75,1,0],[0.5,1,0],[0.25,1,0],[0,0.75,0],[0,0.5,0],[0,0.25,0]];" parent="1" vertex="1">
            <mxGeometry x="450" y="460" width="240" height="120" as="geometry" />
          </mxCell>
        </object>
        <object placeholders="1" c4Name="SecurityControl" c4Type="Container" c4Technology="Node.js" c4Description="Verifica a origem da requisição, permitindo somente requisições com origem e destino do Backend Laravel" label="&lt;font style=&quot;font-size: 16px&quot;&gt;&lt;b&gt;%c4Name%&lt;/b&gt;&lt;/font&gt;&lt;div&gt;[%c4Type%: %c4Technology%]&lt;/div&gt;&lt;br&gt;&lt;div&gt;&lt;font style=&quot;font-size: 11px&quot;&gt;&lt;font color=&quot;#E6E6E6&quot;&gt;%c4Description%&lt;/font&gt;&lt;/div&gt;" id="_5Nk-PLWkJ2nq61Lgyyn-5">
          <mxCell style="rounded=1;whiteSpace=wrap;html=1;fontSize=11;labelBackgroundColor=none;fillColor=#23A2D9;fontColor=#ffffff;align=center;arcSize=10;strokeColor=#0E7DAD;metaEdit=1;resizable=0;points=[[0.25,0,0],[0.5,0,0],[0.75,0,0],[1,0.25,0],[1,0.5,0],[1,0.75,0],[0.75,1,0],[0.5,1,0],[0.25,1,0],[0,0.75,0],[0,0.5,0],[0,0.25,0]];" parent="1" vertex="1">
            <mxGeometry x="1230" y="310" width="240" height="120" as="geometry" />
          </mxCell>
        </object>
        <object placeholders="1" c4Name="Reports Controller" c4Type="Container" c4Technology="Node.js" c4Description="Realiza as operações de leitura e escrita de relatórios, conforme os dados recebidos ou solicitados." label="&lt;font style=&quot;font-size: 16px&quot;&gt;&lt;b&gt;%c4Name%&lt;/b&gt;&lt;/font&gt;&lt;div&gt;[%c4Type%: %c4Technology%]&lt;/div&gt;&lt;br&gt;&lt;div&gt;&lt;font style=&quot;font-size: 11px&quot;&gt;&lt;font color=&quot;#E6E6E6&quot;&gt;%c4Description%&lt;/font&gt;&lt;/div&gt;" id="_5Nk-PLWkJ2nq61Lgyyn-6">
          <mxCell style="rounded=1;whiteSpace=wrap;html=1;fontSize=11;labelBackgroundColor=none;fillColor=#23A2D9;fontColor=#ffffff;align=center;arcSize=10;strokeColor=#0E7DAD;metaEdit=1;resizable=0;points=[[0.25,0,0],[0.5,0,0],[0.75,0,0],[1,0.25,0],[1,0.5,0],[1,0.75,0],[0.75,1,0],[0.5,1,0],[0.25,1,0],[0,0.75,0],[0,0.5,0],[0,0.25,0]];" parent="1" vertex="1">
            <mxGeometry x="1230" y="560" width="240" height="120" as="geometry" />
          </mxCell>
        </object>
        <mxCell id="_5Nk-PLWkJ2nq61Lgyyn-7" style="rounded=0;orthogonalLoop=1;jettySize=auto;html=1;entryX=0.5;entryY=0;entryDx=0;entryDy=0;entryPerimeter=0;dashed=1;" parent="1" source="_5Nk-PLWkJ2nq61Lgyyn-5" target="_5Nk-PLWkJ2nq61Lgyyn-6" edge="1">
          <mxGeometry relative="1" as="geometry" />
        </mxCell>
        <mxCell id="PvCxzTXBCN7CgjAEc5kN-7" value="Encaminha requisição" style="edgeLabel;html=1;align=center;verticalAlign=middle;resizable=0;points=[];" parent="_5Nk-PLWkJ2nq61Lgyyn-7" connectable="0" vertex="1">
          <mxGeometry x="-0.08" y="5" relative="1" as="geometry">
            <mxPoint as="offset" />
          </mxGeometry>
        </mxCell>
        <mxCell id="_5Nk-PLWkJ2nq61Lgyyn-8" style="rounded=0;orthogonalLoop=1;jettySize=auto;html=1;entryX=0.5;entryY=0;entryDx=0;entryDy=0;entryPerimeter=0;dashed=1;" parent="1" source="_5Nk-PLWkJ2nq61Lgyyn-6" target="_hzTCAJk9NoHxhxBSFEY-1" edge="1">
          <mxGeometry relative="1" as="geometry" />
        </mxCell>
        <mxCell id="PvCxzTXBCN7CgjAEc5kN-8" value="Leitura e escrita" style="edgeLabel;html=1;align=center;verticalAlign=middle;resizable=0;points=[];" parent="_5Nk-PLWkJ2nq61Lgyyn-8" connectable="0" vertex="1">
          <mxGeometry x="0.3442" y="1" relative="1" as="geometry">
            <mxPoint as="offset" />
          </mxGeometry>
        </mxCell>
        <object placeholders="1" c4Name="ReportsController" c4Type="Container" c4Technology="e.g. SpringBoot, ElasticSearch, etc." c4Description="Responsável por encaminhar as solicitações envolvendo relatórios para o Backend Node.js" label="&lt;font style=&quot;font-size: 16px&quot;&gt;&lt;b&gt;%c4Name%&lt;/b&gt;&lt;/font&gt;&lt;div&gt;[%c4Type%: %c4Technology%]&lt;/div&gt;&lt;br&gt;&lt;div&gt;&lt;font style=&quot;font-size: 11px&quot;&gt;&lt;font color=&quot;#E6E6E6&quot;&gt;%c4Description%&lt;/font&gt;&lt;/div&gt;" id="_5Nk-PLWkJ2nq61Lgyyn-9">
          <mxCell style="rounded=1;whiteSpace=wrap;html=1;fontSize=11;labelBackgroundColor=none;fillColor=#23A2D9;fontColor=#ffffff;align=center;arcSize=10;strokeColor=#0E7DAD;metaEdit=1;resizable=0;points=[[0.25,0,0],[0.5,0,0],[0.75,0,0],[1,0.25,0],[1,0.5,0],[1,0.75,0],[0.75,1,0],[0.5,1,0],[0.25,1,0],[0,0.75,0],[0,0.5,0],[0,0.25,0]];" parent="1" vertex="1">
            <mxGeometry x="790" y="310" width="240" height="120" as="geometry" />
          </mxCell>
        </object>
        <mxCell id="_5Nk-PLWkJ2nq61Lgyyn-10" style="rounded=0;orthogonalLoop=1;jettySize=auto;html=1;entryX=0;entryY=0.5;entryDx=0;entryDy=0;entryPerimeter=0;" parent="1" source="_5Nk-PLWkJ2nq61Lgyyn-9" target="_5Nk-PLWkJ2nq61Lgyyn-5" edge="1">
          <mxGeometry relative="1" as="geometry" />
        </mxCell>
        <mxCell id="PvCxzTXBCN7CgjAEc5kN-5" value="Chamada de API Privada" style="edgeLabel;html=1;align=center;verticalAlign=middle;resizable=0;points=[];" parent="_5Nk-PLWkJ2nq61Lgyyn-10" connectable="0" vertex="1">
          <mxGeometry x="-0.124" y="3" relative="1" as="geometry">
            <mxPoint as="offset" />
          </mxGeometry>
        </mxCell>
        <mxCell id="_5Nk-PLWkJ2nq61Lgyyn-11" style="rounded=0;orthogonalLoop=1;jettySize=auto;html=1;entryX=0.821;entryY=0.05;entryDx=0;entryDy=0;entryPerimeter=0;dashed=1;" parent="1" source="_5Nk-PLWkJ2nq61Lgyyn-3" target="_hzTCAJk9NoHxhxBSFEY-2" edge="1">
          <mxGeometry relative="1" as="geometry" />
        </mxCell>
        <mxCell id="PvCxzTXBCN7CgjAEc5kN-9" value="Leitura e Escrita" style="edgeLabel;html=1;align=center;verticalAlign=middle;resizable=0;points=[];" parent="_5Nk-PLWkJ2nq61Lgyyn-11" connectable="0" vertex="1">
          <mxGeometry x="0.1243" y="1" relative="1" as="geometry">
            <mxPoint as="offset" />
          </mxGeometry>
        </mxCell>
        <mxCell id="_5Nk-PLWkJ2nq61Lgyyn-12" style="rounded=0;orthogonalLoop=1;jettySize=auto;html=1;entryX=0.549;entryY=0.011;entryDx=0;entryDy=0;entryPerimeter=0;dashed=1;" parent="1" source="_5Nk-PLWkJ2nq61Lgyyn-4" target="_hzTCAJk9NoHxhxBSFEY-2" edge="1">
          <mxGeometry relative="1" as="geometry" />
        </mxCell>
        <mxCell id="PvCxzTXBCN7CgjAEc5kN-10" value="Leitura e Escrita" style="edgeLabel;html=1;align=center;verticalAlign=middle;resizable=0;points=[];" parent="_5Nk-PLWkJ2nq61Lgyyn-12" connectable="0" vertex="1">
          <mxGeometry x="-0.172" y="4" relative="1" as="geometry">
            <mxPoint as="offset" />
          </mxGeometry>
        </mxCell>
        <mxCell id="_5Nk-PLWkJ2nq61Lgyyn-13" style="rounded=0;orthogonalLoop=1;jettySize=auto;html=1;entryX=0.324;entryY=0;entryDx=0;entryDy=0;entryPerimeter=0;dashed=1;exitX=0.65;exitY=0.997;exitDx=0;exitDy=0;exitPerimeter=0;" parent="1" source="_5Nk-PLWkJ2nq61Lgyyn-1" target="_hzTCAJk9NoHxhxBSFEY-2" edge="1">
          <mxGeometry relative="1" as="geometry">
            <mxPoint x="280" y="670" as="sourcePoint" />
          </mxGeometry>
        </mxCell>
        <mxCell id="PvCxzTXBCN7CgjAEc5kN-12" value="Leitura e Escrita" style="edgeLabel;html=1;align=center;verticalAlign=middle;resizable=0;points=[];" parent="_5Nk-PLWkJ2nq61Lgyyn-13" connectable="0" vertex="1">
          <mxGeometry x="-0.5426" y="3" relative="1" as="geometry">
            <mxPoint as="offset" />
          </mxGeometry>
        </mxCell>
        <mxCell id="_5Nk-PLWkJ2nq61Lgyyn-17" style="rounded=0;orthogonalLoop=1;jettySize=auto;html=1;entryX=0.5;entryY=0;entryDx=0;entryDy=0;entryPerimeter=0;dashed=1;" parent="1" source="PkGK7Ku9BQiOKgjleiU0-1" target="_5Nk-PLWkJ2nq61Lgyyn-2" edge="1">
          <mxGeometry relative="1" as="geometry" />
        </mxCell>
        <mxCell id="PvCxzTXBCN7CgjAEc5kN-1" value="Chamada de API" style="edgeLabel;html=1;align=center;verticalAlign=middle;resizable=0;points=[];" parent="_5Nk-PLWkJ2nq61Lgyyn-17" connectable="0" vertex="1">
          <mxGeometry x="-0.1885" y="-1" relative="1" as="geometry">
            <mxPoint as="offset" />
          </mxGeometry>
        </mxCell>
      </root>
    </mxGraphModel>
  </diagram>
</mxfile>
